
<?xml version="1.0" encoding="UTF-8"?>
<svg xmlns="http://www.w3.org/2000/svg" width="1600" height="900" viewBox="0 0 1600 900">
<defs>
<linearGradient id="bg" x1="0%" y1="0%" x2="100%" y2="100%">
<stop offset="0%" stop-color="#050816"/>
<stop offset="100%" stop-color="#22115a"/>
</linearGradient>
<linearGradient id="card" x1="0%" y1="0%" x2="100%" y2="100%">
<stop offset="0%" stop-color="#111827"/>
<stop offset="100%" stop-color="#1e293b"/>
</linearGradient>
<filter id="glow">
<feGaussianBlur stdDeviation="4" result="b"/>
<feMerge><feMergeNode in="b"/><feMergeNode in="SourceGraphic"/></feMerge>
</filter>
</defs>

<rect width="1600" height="900" fill="url(#bg)"/>

<text x="800" y="90" text-anchor="middle"
font-size="54" font-family="Arial"
fill="#4efcff" filter="url(#glow)">
FEATURED PROJECTS
</text>

<text x="800" y="130" text-anchor="middle"
font-size="22" font-family="Arial"
fill="#c7d2fe">
AI • Robotics • Computer Vision • Full Stack
</text>

<rect x="120" y="180" width="620" height="160" rx="20"
fill="url(#card)" stroke="#4efcff" stroke-width="2" filter="url(#glow)"/>
<text x="150" y="235" font-size="30" font-family="Arial"
fill="#8b5cf6">Smart Waste Segregation</text>
<text x="150" y="275" font-size="18" font-family="Arial"
fill="#dbeafe">TensorFlow • OpenCV • ESP32-CAM • MERN</text>
<rect x="550" y="290" width="150" height="34" rx="17"
fill="#8b5cf6"/>
<text x="625" y="313" text-anchor="middle"
font-size="16" font-family="Arial" fill="white">View Project</text>

<rect x="860" y="180" width="620" height="160" rx="20"
fill="url(#card)" stroke="#4efcff" stroke-width="2" filter="url(#glow)"/>
<text x="890" y="235" font-size="30" font-family="Arial"
fill="#8b5cf6">Quadruped Robodog</text>
<text x="890" y="275" font-size="18" font-family="Arial"
fill="#dbeafe">Arduino • Embedded C • Servo Control</text>
<rect x="1290" y="290" width="150" height="34" rx="17"
fill="#8b5cf6"/>
<text x="1365" y="313" text-anchor="middle"
font-size="16" font-family="Arial" fill="white">View Project</text>

<rect x="120" y="430" width="620" height="160" rx="20"
fill="url(#card)" stroke="#4efcff" stroke-width="2" filter="url(#glow)"/>
<text x="150" y="485" font-size="30" font-family="Arial"
fill="#8b5cf6">Disaster Drone</text>
<text x="150" y="525" font-size="18" font-family="Arial"
fill="#dbeafe">YOLO • AI Vision • Navigation</text>
<rect x="550" y="540" width="150" height="34" rx="17"
fill="#8b5cf6"/>
<text x="625" y="563" text-anchor="middle"
font-size="16" font-family="Arial" fill="white">View Project</text>

<rect x="860" y="430" width="620" height="160" rx="20"
fill="url(#card)" stroke="#4efcff" stroke-width="2" filter="url(#glow)"/>
<text x="890" y="485" font-size="30" font-family="Arial"
fill="#8b5cf6">Line Follower</text>
<text x="890" y="525" font-size="18" font-family="Arial"
fill="#dbeafe">ESP32 • PID • TB6612</text>
<rect x="1290" y="540" width="150" height="34" rx="17"
fill="#8b5cf6"/>
<text x="1365" y="563" text-anchor="middle"
font-size="16" font-family="Arial" fill="white">View Project</text>

<rect x="120" y="680" width="620" height="160" rx="20"
fill="url(#card)" stroke="#4efcff" stroke-width="2" filter="url(#glow)"/>
<text x="150" y="735" font-size="30" font-family="Arial"
fill="#8b5cf6">SB Stocks</text>
<text x="150" y="775" font-size="18" font-family="Arial"
fill="#dbeafe">React • Node • Express • MongoDB</text>
<rect x="550" y="790" width="150" height="34" rx="17"
fill="#8b5cf6"/>
<text x="625" y="813" text-anchor="middle"
font-size="16" font-family="Arial" fill="white">View Project</text>

<rect x="860" y="680" width="620" height="160" rx="20"
fill="url(#card)" stroke="#4efcff" stroke-width="2" filter="url(#glow)"/>
<text x="890" y="735" font-size="30" font-family="Arial"
fill="#8b5cf6">Candidate AI</text>
<text x="890" y="775" font-size="18" font-family="Arial"
fill="#dbeafe">Python • NLP • ML</text>
<rect x="1290" y="790" width="150" height="34" rx="17"
fill="#8b5cf6"/>
<text x="1365" y="813" text-anchor="middle"
font-size="16" font-family="Arial" fill="white">View Project</text>

<line x1="120" y1="875" x2="1480" y2="875" stroke="#4efcff"/>
<text x="800" y="860" text-anchor="middle"
font-size="18" font-family="Arial" fill="#c7d2fe">
github.com/Akarshi27
</text>
</svg>
